<svg width="135" height="40" viewBox="0 0 135 40" fill="none" xmlns="http://www.w3.org/2000/svg">
<g id="Layer 2">
<g id="artwork">
<path id="Vector" d="M130 0H5C2.23858 0 0 2.23858 0 5V35C0 37.7614 2.23858 40 5 40H130C132.761 40 135 37.7614 135 35V5C135 2.23858 132.761 0 130 0Z" fill="black"/>
<path id="Vector_2" d="M130 0.7998C131.114 0.801086 132.181 1.24403 132.968 2.03145C133.756 2.81887 134.199 3.88646 134.2 5V35C134.199 36.1135 133.756 37.1811 132.968 37.9685C132.181 38.7559 131.114 39.1989 130 39.2002H5C3.88645 39.1989 2.81888 38.756 2.0315 37.9686C1.24412 37.1811 0.801231 36.1135 0.8 35V5C0.801212 3.88644 1.24409 2.81884 2.03148 2.03142C2.81886 1.244 3.88644 0.801065 5 0.7998H130ZM130 0H5C3.67511 0.0038781 2.40559 0.531908 1.46875 1.46875C0.531908 2.40559 0.0038781 3.67511 0 5L0 35C0.0038781 36.3249 0.531908 37.5944 1.46875 38.5312C2.40559 39.4681 3.67511 39.9961 5 40H130C131.325 39.9961 132.594 39.4681 133.531 38.5312C134.468 37.5944 134.996 36.3249 135 35V5C134.996 3.67511 134.468 2.40559 133.531 1.46875C132.594 0.531908 131.325 0.0038781 130 0Z" fill="#A6A6A6"/>
<path id="Vector_3" d="M47.4183 10.2429C47.4365 10.6098 47.3798 10.9766 47.2516 11.3209C47.1235 11.6653 46.9267 11.9799 46.6731 12.2458C46.3889 12.5405 46.0456 12.772 45.6658 12.9249C45.286 13.0779 44.8782 13.149 44.469 13.1335C44.0572 13.1371 43.6488 13.0585 43.2679 12.9021C42.8869 12.7457 42.5411 12.5147 42.2507 12.2228C41.9603 11.9308 41.7312 11.5837 41.5768 11.202C41.4225 10.8202 41.346 10.4114 41.3519 9.99965C41.346 9.58788 41.4225 9.1791 41.5769 8.79732C41.7313 8.41554 41.9604 8.06846 42.2508 7.77647C42.5412 7.48447 42.887 7.25346 43.2679 7.097C43.6488 6.94053 44.0572 6.86178 44.469 6.86535C44.8924 6.86407 45.3115 6.94967 45.7005 7.11685C46.0617 7.26329 46.3833 7.493 46.639 7.78725L46.1116 8.31505C45.9106 8.0785 45.658 7.89129 45.3732 7.76786C45.0884 7.64442 44.779 7.58807 44.469 7.60315C44.1569 7.60154 43.8477 7.66292 43.5599 7.78363C43.2721 7.90435 43.0116 8.0819 42.7941 8.30566C42.5765 8.52942 42.4064 8.79478 42.2938 9.08586C42.1812 9.37694 42.1286 9.68774 42.139 9.99965C42.1315 10.4668 42.263 10.9257 42.5167 11.3181C42.7704 11.7105 43.1349 12.0187 43.564 12.2037C43.9931 12.3886 44.4674 12.442 44.9269 12.357C45.3864 12.272 45.8102 12.0525 46.1448 11.7263C46.4527 11.3945 46.6311 10.9632 46.6477 10.5109H44.469V9.79015H47.3763C47.4038 9.93949 47.4178 10.091 47.4183 10.2429Z" fill="white" stroke="white" stroke-width="0.2" stroke-miterlimit="10"/>
<path id="Vector_4" d="M52.0263 7.7373H49.2939V9.6396H51.7578V10.3604H49.2939V12.2627H52.0263V13H48.5234V7H52.0263V7.7373Z" fill="white" stroke="white" stroke-width="0.2" stroke-miterlimit="10"/>
<path id="Vector_5" d="M55.2754 13H54.5039V7.7373H52.8281V7H56.9512V7.7373H55.2754V13Z" fill="white" stroke="white" stroke-width="0.2" stroke-miterlimit="10"/>
<path id="Vector_6" d="M59.9375 13V7H60.708V13H59.9375Z" fill="white" stroke="white" stroke-width="0.2" stroke-miterlimit="10"/>
<path id="Vector_7" d="M64.1269 13H63.3554V7.7373H61.6797V7H65.8027V7.7373H64.1269V13Z" fill="white" stroke="white" stroke-width="0.2" stroke-miterlimit="10"/>
<path id="Vector_8" d="M73.6121 12.2241C73.0281 12.8064 72.2371 13.1333 71.4124 13.1333C70.5877 13.1333 69.7967 12.8064 69.2127 12.2241C68.9238 11.9315 68.6967 11.5838 68.5448 11.2016C68.393 10.8194 68.3196 10.4106 68.3289 9.99953C68.3196 9.58842 68.393 9.17963 68.5448 8.79746C68.6967 8.4153 68.9238 8.06756 69.2127 7.77493C69.5014 7.4862 69.8441 7.25723 70.2214 7.10113C70.5987 6.94504 71.003 6.86487 71.4113 6.86524C71.8196 6.8656 72.2237 6.94648 72.6007 7.10325C72.9777 7.26001 73.3201 7.48959 73.6082 7.77883C73.8973 8.07069 74.1249 8.41765 74.2774 8.79912C74.4299 9.18059 74.5042 9.5888 74.4959 9.99953C74.505 10.4106 74.4314 10.8193 74.2796 11.2015C74.1278 11.5836 73.9008 11.9314 73.6121 12.2241ZM69.782 11.7217C70.2145 12.1535 70.8007 12.396 71.4119 12.396C72.0231 12.396 72.6093 12.1535 73.0418 11.7217C73.2636 11.4947 73.4371 11.225 73.5517 10.929C73.6664 10.633 73.7198 10.3168 73.7088 9.99953C73.7198 9.68229 73.6664 9.36612 73.5517 9.07011C73.4371 8.77411 73.2636 8.50442 73.0418 8.27733C72.6093 7.84554 72.0231 7.60302 71.4119 7.60302C70.8007 7.60302 70.2145 7.84554 69.782 8.27733C69.5605 8.5046 69.3873 8.77434 69.2729 9.07032C69.1584 9.3663 69.1051 9.68238 69.116 9.99953C69.1051 10.3167 69.1584 10.6328 69.2729 10.9287C69.3873 11.2247 69.5605 11.4945 69.782 11.7217Z" fill="white" stroke="white" stroke-width="0.2" stroke-miterlimit="10"/>
<path id="Vector_9" d="M75.5781 13V7H76.5166L79.4326 11.6675H79.4658L79.4326 10.5112V7H80.2041V13H79.3994L76.3486 8.1064H76.3154L76.3486 9.2627V13H75.5781Z" fill="white" stroke="white" stroke-width="0.2" stroke-miterlimit="10"/>
<path id="Vector_10" d="M68.1334 21.7519C67.2929 21.7551 66.4722 22.0073 65.7749 22.4766C65.0776 22.9458 64.5349 23.6112 64.2155 24.3887C63.8961 25.1661 63.8141 26.0208 63.9801 26.8448C64.146 27.6687 64.5524 28.4251 65.1478 29.0183C65.7433 29.6115 66.5012 30.0149 67.3258 30.1777C68.1504 30.3405 69.0047 30.2554 69.7809 29.933C70.5571 29.6106 71.2205 29.0654 71.6871 28.3663C72.1537 27.6672 72.4027 26.8456 72.4027 26.0051C72.411 25.4429 72.3061 24.8848 72.0942 24.364C71.8824 23.8432 71.568 23.3703 71.1697 22.9735C70.7714 22.5767 70.2973 22.264 69.7757 22.0542C69.2541 21.8443 68.6956 21.7416 68.1334 21.7519ZM68.1334 28.5828C67.6158 28.6197 67.0991 28.4999 66.6505 28.239C66.2019 27.9781 65.8422 27.5882 65.6183 27.12C65.3944 26.6519 65.3167 26.1272 65.3952 25.6142C65.4737 25.1012 65.7048 24.6238 66.0585 24.244C66.4121 23.8642 66.8719 23.5997 67.378 23.4849C67.8841 23.3701 68.413 23.4104 68.8959 23.6004C69.3788 23.7904 69.7933 24.1214 70.0854 24.5503C70.3776 24.9792 70.5338 25.4861 70.5338 26.0051C70.5495 26.3329 70.4995 26.6606 70.3867 26.9688C70.2738 27.277 70.1005 27.5595 69.8768 27.7997C69.6531 28.0399 69.3836 28.2329 69.0842 28.3674C68.7848 28.5019 68.4616 28.5751 68.1334 28.5828ZM58.82 21.7519C57.9795 21.7551 57.1588 22.0073 56.4615 22.4765C55.7641 22.9458 55.2215 23.6112 54.902 24.3886C54.5826 25.166 54.5006 26.0207 54.6666 26.8447C54.8325 27.6687 55.2388 28.425 55.8343 29.0182C56.4297 29.6114 57.1876 30.0149 58.0122 30.1777C58.8368 30.3405 59.6912 30.2554 60.4674 29.933C61.2436 29.6106 61.9069 29.0654 62.3736 28.3663C62.8402 27.6672 63.0892 26.8456 63.0892 26.0051C63.0975 25.4429 62.9926 24.8848 62.7808 24.364C62.5689 23.8432 62.2545 23.3703 61.8562 22.9735C61.4579 22.5767 60.9838 22.2641 60.4622 22.0542C59.9406 21.8444 59.3822 21.7416 58.82 21.7519ZM58.82 28.5828C58.3024 28.6197 57.7857 28.4999 57.3371 28.239C56.8885 27.9781 56.5288 27.5882 56.3049 27.12C56.081 26.6519 56.0033 26.1272 56.0818 25.6142C56.1603 25.1012 56.3914 24.6238 56.7451 24.244C57.0987 23.8642 57.5585 23.5997 58.0646 23.4849C58.5707 23.3701 59.0996 23.4104 59.5825 23.6004C60.0654 23.7904 60.4799 24.1214 60.772 24.5503C61.0642 24.9792 61.2204 25.4861 61.2204 26.0051C61.2361 26.3329 61.1861 26.6606 61.0733 26.9688C60.9604 27.277 60.7871 27.5595 60.5634 27.7997C60.3397 28.0399 60.0702 28.2329 59.7708 28.3674C59.4714 28.5019 59.1482 28.5751 58.82 28.5828ZM47.7412 23.0569V24.8612H52.0589C51.9966 25.7076 51.6503 26.508 51.0761 27.1329C50.6434 27.5739 50.1231 27.9193 49.5487 28.1468C48.9743 28.3744 48.3586 28.479 47.7412 28.4538C46.4792 28.4368 45.2747 27.9234 44.3883 27.025C43.5019 26.1265 43.0049 24.9151 43.0049 23.653C43.0049 22.3908 43.5019 21.1794 44.3883 20.2809C45.2747 19.3825 46.4792 18.8691 47.7412 18.8521C48.9534 18.8362 50.1229 19.2994 50.9956 20.1409L52.2683 18.8682C51.6729 18.2787 50.9657 17.814 50.1884 17.5014C49.411 17.1888 48.579 17.0345 47.7412 17.0476C46.8657 17.0349 45.9964 17.1963 45.1838 17.5226C44.3713 17.8488 43.6317 18.3333 43.008 18.9479C42.3844 19.5625 41.8892 20.295 41.5512 21.1027C41.2131 21.9105 41.0391 22.7773 41.0391 23.653C41.0391 24.5286 41.2131 25.3954 41.5512 26.2032C41.8892 27.0109 42.3844 27.7434 43.008 28.358C43.6317 28.9726 44.3713 29.4571 45.1838 29.7833C45.9964 30.1096 46.8657 30.271 47.7412 30.2582C48.5967 30.2937 49.4499 30.1469 50.2443 29.8275C51.0387 29.508 51.7561 29.0234 52.3488 28.4056C53.4012 27.2568 53.9622 25.7418 53.9116 24.1847C53.9158 23.8065 53.8833 23.4289 53.8148 23.0569H47.7412ZM93.0495 24.4585C92.7939 23.6881 92.3074 23.0151 91.656 22.5309C91.0046 22.0466 90.2199 21.7747 89.4085 21.7519C88.8621 21.7553 88.322 21.8695 87.8209 22.0875C87.3198 22.3056 86.8681 22.623 86.4931 23.0205C86.1182 23.4181 85.8278 23.8875 85.6394 24.4005C85.451 24.9135 85.3686 25.4593 85.3971 26.0051C85.3848 26.5642 85.4853 27.1202 85.6927 27.6396C85.9 28.1591 86.21 28.6314 86.6039 29.0284C86.9979 29.4254 87.4679 29.7389 87.9858 29.9502C88.5036 30.1615 89.0588 30.2663 89.618 30.2582C90.3187 30.2621 91.0093 30.0919 91.6279 29.7629C92.2465 29.4339 92.7738 28.9565 93.1622 28.3734L91.7123 27.4067C91.4951 27.7675 91.1879 28.0656 90.8207 28.2717C90.4535 28.4779 90.0391 28.5851 89.618 28.5828C89.1847 28.5993 88.7564 28.4853 88.3887 28.2555C88.021 28.0257 87.7308 27.6907 87.5558 27.2939L93.2429 24.9419L93.0495 24.4585ZM87.2498 25.8762C87.2298 25.5667 87.2717 25.2562 87.3731 24.9631C87.4745 24.6699 87.6334 24.3999 87.8404 24.1689C88.0474 23.9379 88.2984 23.7505 88.5787 23.6176C88.859 23.4848 89.163 23.4092 89.4729 23.3953C89.7956 23.374 90.1174 23.4483 90.3982 23.6087C90.679 23.7691 90.9063 24.0087 91.0518 24.2974L87.2498 25.8762ZM82.626 30.0005H84.4948V17.4988H82.626V30.0005ZM79.565 22.7024H79.5006C79.2165 22.3938 78.8698 22.1493 78.4836 21.9854C78.0974 21.8215 77.6806 21.7419 77.2612 21.7519C76.1645 21.7986 75.1283 22.2671 74.3688 23.0596C73.6092 23.8521 73.1852 24.9074 73.1852 26.0051C73.1852 27.1028 73.6092 28.158 74.3688 28.9506C75.1283 29.7431 76.1645 30.2116 77.2612 30.2582C77.6823 30.2695 78.1008 30.1888 78.4875 30.0219C78.8742 29.8549 79.22 29.6057 79.5006 29.2917H79.565V29.9039C79.565 31.5311 78.6951 32.4009 77.2934 32.4009C76.8263 32.3898 76.3731 32.2398 75.9915 31.9701C75.6099 31.7004 75.3173 31.3232 75.1508 30.8865L73.5236 31.5632C73.8303 32.3099 74.353 32.948 75.0246 33.3958C75.6962 33.8435 76.4862 34.0805 77.2934 34.0764C79.4845 34.0764 81.3372 32.7876 81.3372 29.646V22.0096H79.565V22.7024ZM77.4224 28.5828C76.7765 28.528 76.1747 28.2327 75.7361 27.7553C75.2975 27.278 75.0541 26.6534 75.0541 26.0051C75.0541 25.3568 75.2975 24.7322 75.7361 24.2549C76.1747 23.7775 76.7765 23.4822 77.4224 23.4275C77.7438 23.4431 78.0587 23.5234 78.3484 23.6634C78.6381 23.8034 78.8966 24.0002 79.1086 24.2423C79.3205 24.4843 79.4816 24.7666 79.5822 25.0722C79.6828 25.3778 79.7207 25.7005 79.6939 26.0212C79.7191 26.3398 79.6797 26.6602 79.5781 26.9633C79.4765 27.2663 79.3149 27.5458 79.1028 27.7849C78.8908 28.0241 78.6326 28.218 78.3439 28.3551C78.0552 28.4921 77.7418 28.5696 77.4224 28.5828ZM101.803 17.4991H97.3322V30.0005H99.1979V25.264H101.803C102.331 25.293 102.859 25.214 103.355 25.032C103.852 24.8499 104.306 24.5686 104.689 24.2053C105.073 23.8419 105.379 23.4041 105.588 22.9186C105.797 22.4331 105.905 21.9101 105.905 21.3815C105.905 20.853 105.797 20.33 105.588 19.8445C105.379 19.359 105.073 18.9212 104.689 18.5578C104.306 18.1945 103.852 17.9132 103.355 17.7311C102.859 17.5491 102.331 17.4701 101.803 17.4991ZM101.852 23.5243H99.1979V19.239H101.852C102.137 19.233 102.42 19.2841 102.685 19.3891C102.95 19.4941 103.192 19.651 103.396 19.8506C103.599 20.0501 103.761 20.2883 103.872 20.5512C103.982 20.8141 104.039 21.0964 104.039 21.3816C104.039 21.6668 103.982 21.9491 103.872 22.212C103.761 22.4749 103.599 22.7131 103.396 22.9126C103.192 23.1122 102.95 23.2691 102.685 23.3741C102.42 23.4791 102.137 23.5302 101.852 23.5243ZM113.383 21.729C112.702 21.6892 112.024 21.8491 111.433 22.1891C110.842 22.5291 110.362 23.0343 110.054 23.6428L111.711 24.3344C111.875 24.0324 112.124 23.7848 112.426 23.622C112.729 23.4592 113.073 23.3882 113.415 23.4177C113.889 23.3714 114.361 23.5148 114.729 23.8163C115.097 24.1177 115.33 24.5528 115.378 25.0259V25.1546C114.778 24.8363 114.11 24.6706 113.432 24.6721C111.646 24.6721 109.829 25.6532 109.829 27.4867C109.846 27.8732 109.941 28.2521 110.108 28.6012C110.274 28.9503 110.509 29.2623 110.799 29.5189C111.088 29.7754 111.426 29.9711 111.793 30.0945C112.16 30.2178 112.547 30.2663 112.933 30.2369C113.403 30.2646 113.871 30.1658 114.29 29.9508C114.709 29.7359 115.062 29.4126 115.313 29.0147H115.378V29.9797H117.179V25.1868C117.179 22.9673 115.522 21.729 113.383 21.729ZM113.158 28.5803C112.547 28.5803 111.695 28.2748 111.695 27.5189C111.695 26.554 112.756 26.184 113.673 26.184C114.268 26.1681 114.857 26.3125 115.378 26.6021C115.309 27.1444 115.047 27.6435 114.639 28.0071C114.231 28.3708 113.705 28.5744 113.158 28.5803ZM123.741 22.0023L121.602 27.4223H121.537L119.318 22.0023H117.308L120.637 29.5775L118.739 33.7913H120.685L125.816 22.0023H123.741ZM106.934 30.0005H108.8V17.4991H106.934V30.0005Z" fill="white"/>
<path id="Vector_11" d="M10.4352 7.53744C10.1073 7.92952 9.9417 8.43214 9.97238 8.94234V31.0584C9.94161 31.5687 10.1072 32.0713 10.4352 32.4633L10.5092 32.5354L22.8982 20.1465V19.8542L10.5092 7.46484L10.4352 7.53744Z" fill="url(#paint0_linear_931_214)"/>
<path id="Vector_12" d="M27.0278 24.2787L22.8984 20.1473V19.855L27.0288 15.7246L27.1219 15.7777L32.0147 18.5578C33.4123 19.3518 33.4123 20.651 32.0147 21.4455L27.1219 24.2256L27.0278 24.2787Z" fill="url(#paint1_linear_931_214)"/>
<path id="Vector_13" d="M27.124 24.2259L22.9005 20.002L10.4375 32.4649C10.7223 32.716 11.0859 32.8596 11.4655 32.8709C11.845 32.8821 12.2165 32.7602 12.5156 32.5263L27.124 24.2259Z" fill="url(#paint2_linear_931_214)"/>
<path id="Vector_14" d="M27.124 15.7766L12.5156 7.47617C12.2165 7.24226 11.845 7.12036 11.4655 7.13157C11.0859 7.14278 10.7223 7.28641 10.4375 7.53757L22.9005 20.0006L27.124 15.7766Z" fill="url(#paint3_linear_931_214)"/>
<path id="Vector_15" opacity="0.2" d="M27.0309 24.1328L12.5156 32.3801C12.228 32.599 11.877 32.7185 11.5156 32.7204C11.1542 32.7224 10.8019 32.6067 10.512 32.3908L10.4375 32.4653L10.5115 32.5374L10.512 32.5369C10.8019 32.7529 11.1541 32.8686 11.5156 32.8667C11.8771 32.8648 12.2281 32.7453 12.5156 32.5262L27.124 24.2258L27.0309 24.1328Z" fill="black"/>
<path id="Vector_16" opacity="0.12" d="M10.4352 32.319C10.1073 31.9269 9.94171 31.4243 9.97236 30.9141V31.0602C9.94169 31.5704 10.1073 32.073 10.4352 32.4651L10.5097 32.3906L10.4352 32.319Z" fill="black"/>
<path id="Vector_17" opacity="0.12" d="M32.0171 21.2993L27.0312 24.1325L27.1243 24.2255L32.0171 21.4454C32.305 21.3204 32.554 21.1207 32.7384 20.8668C32.9228 20.6129 33.0357 20.3143 33.0655 20.002C33.0036 20.2848 32.8766 20.5493 32.6947 20.7745C32.5127 20.9997 32.2807 21.1794 32.0171 21.2993Z" fill="black"/>
<path id="Vector_18" opacity="0.25" d="M12.5097 7.62334L32.0108 18.7033C32.2745 18.8232 32.5066 19.0029 32.6885 19.2282C32.8705 19.4535 32.9974 19.7182 33.0592 20.0011C33.0296 19.6887 32.9168 19.3899 32.7324 19.1359C32.548 18.8819 32.2988 18.6821 32.0108 18.5572L12.5097 7.47724C11.1121 6.68314 9.96875 7.34274 9.96875 8.94354V9.08964C9.96875 7.48894 11.1121 6.82934 12.5097 7.62334Z" fill="white"/>
</g>
</g>
<defs>
<linearGradient id="paint0_linear_931_214" x1="21.7995" y1="8.70915" x2="5.01711" y2="25.4916" gradientUnits="userSpaceOnUse">
<stop stop-color="#00A0FF"/>
<stop offset="0.00657" stop-color="#00A1FF"/>
<stop offset="0.2601" stop-color="#00BEFF"/>
<stop offset="0.5122" stop-color="#00D2FF"/>
<stop offset="0.7604" stop-color="#00DFFF"/>
<stop offset="1" stop-color="#00E3FF"/>
</linearGradient>
<linearGradient id="paint1_linear_931_214" x1="33.8344" y1="20.0017" x2="9.63752" y2="20.0017" gradientUnits="userSpaceOnUse">
<stop stop-color="#FFE000"/>
<stop offset="0.4087" stop-color="#FFBD00"/>
<stop offset="0.7754" stop-color="#FFA500"/>
<stop offset="1" stop-color="#FF9C00"/>
</linearGradient>
<linearGradient id="paint2_linear_931_214" x1="24.8291" y1="22.2971" x2="2.07077" y2="45.0553" gradientUnits="userSpaceOnUse">
<stop stop-color="#FF3A44"/>
<stop offset="1" stop-color="#C31162"/>
</linearGradient>
<linearGradient id="paint3_linear_931_214" x1="7.29943" y1="0.175749" x2="17.462" y2="10.3383" gradientUnits="userSpaceOnUse">
<stop stop-color="#32A071"/>
<stop offset="0.0685" stop-color="#2DA771"/>
<stop offset="0.4762" stop-color="#15CF74"/>
<stop offset="0.8009" stop-color="#06E775"/>
<stop offset="1" stop-color="#00F076"/>
</linearGradient>
</defs>
</svg>
